<?xml version="1.0" encoding="UTF-8" standalone="no"?>
<!DOCTYPE svg PUBLIC "-//W3C//DTD SVG 1.1//EN" "http://www.w3.org/Graphics/SVG/1.1/DTD/svg11.dtd">
<svg width="100%" height="100%" viewBox="0 0 106 40" version="1.1" xmlns="http://www.w3.org/2000/svg" xmlns:xlink="http://www.w3.org/1999/xlink" xml:space="preserve" xmlns:serif="http://www.serif.com/" style="fill-rule:evenodd;clip-rule:evenodd;stroke-linejoin:round;stroke-miterlimit:2;">
    <g transform="matrix(1,0,0,1,-0.0678711,-6.76273)">
        <path d="M98.941,27.549C98.317,25.966 97.312,24.709 95.929,23.778C94.544,22.848 92.896,22.382 90.986,22.382C88.412,22.382 86.346,23.204 84.787,24.847C83.226,26.49 82.447,28.618 82.447,31.231C82.447,33.844 83.226,35.973 84.787,37.615C86.346,39.259 88.412,40.08 90.986,40.08C92.896,40.08 94.544,39.615 95.929,38.685C97.312,37.754 98.317,36.497 98.941,34.913L105.96,34.913C105.608,36.656 104.995,38.25 104.117,39.694C103.24,41.14 102.158,42.377 100.87,43.405C99.585,44.436 98.102,45.237 96.425,45.811C94.749,46.385 92.935,46.672 90.986,46.672C88.685,46.672 86.589,46.286 84.699,45.514C82.807,44.742 81.169,43.673 79.786,42.307C78.402,40.941 77.329,39.308 76.569,37.407C75.808,35.507 75.428,33.449 75.428,31.231C75.428,29.014 75.808,26.955 76.569,25.055C77.329,23.154 78.402,21.521 79.786,20.155C81.169,18.789 82.807,17.72 84.699,16.948C86.589,16.176 88.685,15.79 90.986,15.79C92.935,15.79 94.749,16.078 96.425,16.651C98.102,17.226 99.585,18.027 100.87,19.056C102.158,20.086 103.24,21.323 104.117,22.768C104.995,24.214 105.608,25.807 105.96,27.549L98.941,27.549Z" style="fill:rgb(62,81,181);"/>
    </g>
    <g transform="matrix(1,0,0,1,-0.0678711,-6.76273)">
        <path d="M71.611,34.616C71.611,36.635 71.327,38.408 70.763,39.932C70.197,41.456 69.388,42.714 68.335,43.703C67.283,44.693 66.034,45.435 64.592,45.929C63.149,46.424 61.551,46.672 59.796,46.672C58.041,46.672 56.442,46.424 55.001,45.929C53.557,45.435 52.31,44.693 51.257,43.703C50.204,42.714 49.394,41.456 48.829,39.932C48.264,38.408 47.982,36.635 47.982,34.616L47.982,6.763L54.941,6.763L54.941,16.562L69.856,16.562L69.856,22.976L54.941,22.976L54.941,34.616C54.941,36.596 55.389,38.001 56.287,38.833C57.183,39.664 58.353,40.08 59.796,40.08C61.239,40.08 62.408,39.674 63.305,38.862C64.202,38.052 64.651,36.635 64.651,34.616L64.651,33.844L71.611,33.844L71.611,34.616Z" style="fill:rgb(62,81,181);"/>
    </g>
    <g transform="matrix(1,0,0,1,-0.0678711,-6.76273)">
        <path d="M18.726,46.726L18.726,29.978C18.726,27.603 18.17,25.88 17.059,24.811C15.948,23.742 14.553,23.208 12.877,23.208C11.161,23.208 9.757,23.733 8.666,24.782C7.573,25.831 7.028,27.564 7.028,29.978L7.028,46.726L0.068,46.726L0.068,29.978C0.068,27.682 0.379,25.693 1.003,24.01C1.627,22.327 2.475,20.942 3.548,19.852C4.62,18.764 5.897,17.952 7.379,17.417C8.86,16.883 10.459,16.616 12.175,16.616C14.358,16.616 16.298,17.061 17.994,17.952C19.691,18.843 21.065,20.12 22.118,21.782L22.235,21.782C23.248,20.12 24.604,18.843 26.3,17.952C27.997,17.061 29.955,16.616 32.178,16.616C33.894,16.616 35.492,16.883 36.974,17.417C38.456,17.952 39.732,18.764 40.805,19.852C41.878,20.942 42.725,22.327 43.349,24.01C43.972,25.693 44.285,27.682 44.285,29.978L44.285,46.726L37.325,46.726L37.325,29.978C37.325,27.564 36.779,25.831 35.687,24.782C34.595,23.733 33.192,23.208 31.476,23.208C29.799,23.208 28.415,23.742 27.324,24.811C26.231,25.88 25.686,27.603 25.686,29.978L25.686,46.726L18.726,46.726Z" style="fill:rgb(62,81,181);"/>
    </g>
</svg>
